<?xml version="1.0" encoding="UTF-8"?>
<svg id="Layer_1" data-name="Layer 1" xmlns="http://www.w3.org/2000/svg" xmlns:xlink="http://www.w3.org/1999/xlink" viewBox="0 0 193.33 173.33">
  <defs>
    <style>
      .cls-1 {
        fill: #fff;
      }

      .cls-2 {
        fill: none;
        filter: url(#drop-shadow-1);
      }

      .cls-3 {
        fill: #db2777;
      }
    </style>
    <filter id="drop-shadow-1" filterUnits="userSpaceOnUse">
      <feOffset dx="1" dy="3"/>
      <feGaussianBlur result="blur" stdDeviation="5"/>
      <feFlood flood-color="#6d6b6b" flood-opacity=".34"/>
      <feComposite in2="blur" operator="in"/>
      <feComposite in="SourceGraphic"/>
    </filter>
  </defs>
  <g class="cls-2">
    <circle class="cls-1" cx="99.58" cy="86.67" r="73.62"/>
    <g>
      <path class="cls-3" d="m108.43,119.2c-3.61-.11-6.49-1.6-8.58-4.54-.2-.28-.28-.36-.51-.02-4.25,6.12-13.14,6.04-17.28-.14-.15-.22-.33-.35-.57-.44-4.25-1.65-6.91-5.76-6.66-10.32.01-.26-.11-.36-.28-.48-2.21-1.52-3.58-3.59-4.03-6.25-.36-2.16.01-4.2,1.09-6.1.16-.28.16-.47,0-.75-1.95-3.41-1.55-7.6,1-10.62.22-.26.3-.47.22-.82-1.05-4.68,1.64-9.38,6.2-10.84.4-.13.46-.26.38-.67-.7-3.26.82-6.43,3.79-7.91.46-.23.82-.57,1.23-.86,2.5-1.79,5.16-3.27,8.18-3.97,1.55-.36,3.12-.53,4.66.06.8.3,1.51.75,2.11,1.35.15.16.24.18.42.01,1.62-1.59,3.59-1.99,5.76-1.63,3.43.57,6.4,2.17,9.18,4.16.55.4,1.1.78,1.69,1.12,2.71,1.55,4.05,4.69,3.33,7.78-.08.33,0,.42.3.52,3.86,1.25,6.4,4.62,6.54,8.67.03.8-.07,1.59-.26,2.37-.05.21-.02.35.12.51,1.4,1.59,2.18,3.45,2.32,5.57.12,1.86-.28,3.61-1.21,5.22-.16.27-.14.45,0,.71,2.42,4.25,1.17,9.59-2.88,12.34-.2.13-.35.23-.33.54.28,4.44-2.4,8.61-6.56,10.25-.32.12-.54.29-.74.58-2.09,3-4.99,4.49-8.62,4.6Zm-19.21-60.09s.03.07.04.07c.11.06.23.13.35.19,1.35.73,2.4,1.76,3.08,3.14.49,1.01-.07,2.11-1.16,2.3-.68.12-1.31-.24-1.73-1.02-1.03-1.87-3.26-2.6-5.18-1.69-1.84.88-2.71,3.07-1.98,4.98.1.25.23.37.5.41,2.86.4,5.06,1.84,6.63,4.25.95,1.46,1.41,3.07,1.45,4.81.03.98-.64,1.72-1.55,1.75-.91.02-1.59-.69-1.6-1.68,0-.4-.05-.8-.14-1.18-.78-3.52-4.32-5.63-7.76-4.63-3.43,1-5.26,4.69-4.02,8.08.32.88.18,1.43-.52,2.05-1.92,1.7-2.59,4.36-1.71,6.74.88,2.39,3.11,3.97,5.66,4.03,1.01.02,1.69.67,1.68,1.6,0,.93-.71,1.59-1.72,1.56-1.86-.04-3.58-.57-5.1-1.64-.35-.25-.43-.14-.55.19-1.06,2.97.29,6.25,3.18,7.64.89.43,1.18.98,1,1.96-.63,3.6,1.46,7.13,4.91,8.2.7.22,1.15.6,1.53,1.22,1.65,2.65,4.07,3.88,7.15,3.49,2.97-.37,4.95-2.11,5.98-4.93.44-1.21.36-2.47.36-3.72,0-11.22,0-22.44,0-33.67,0-.28,0-.56-.06-.84-.32-1.35-1.28-2.1-2.9-2.26-.85-.08-1.48-.77-1.45-1.61.03-.86.7-1.51,1.58-1.53.89-.01,1.73.17,2.53.55.26.13.32.07.32-.2,0-2.58.01-5.17-.01-7.75-.01-1.44-1.25-2.68-2.7-2.7-2.21-.03-4.15.82-6.07,1.8Zm11.94,42.18c.61-.57,1.17-1.01,1.77-1.38.9-.55,1.85-.99,2.88-1.21.85-.17,1.6.31,1.82,1.1.23.82-.19,1.62-1,1.92-.18.07-.36.12-.55.17-3.4,1.11-5.54,4.78-4.81,8.28.64,3.04,3.02,5.31,6.08,5.79,2.95.46,5.91-1.01,7.41-3.7.27-.48.63-.79,1.16-.95,3.65-1.11,5.76-4.5,5.17-8.25-.17-1.05.1-1.57,1.05-2.02,2.84-1.36,4.2-4.74,3.11-7.67-.12-.32-.21-.37-.51-.16-1.57,1.1-3.32,1.64-5.23,1.66-.92.01-1.6-.66-1.61-1.53-.02-.91.63-1.59,1.56-1.63.24-.01.48,0,.71-.03,2.58-.4,4.39-1.82,5.16-4.31.78-2.5.08-4.68-1.85-6.46-.63-.58-.8-1.16-.5-1.95.4-1.06.51-2.14.34-3.26-.49-3.28-3.87-5.68-7.12-5.05-3.02.59-5.02,2.96-5.11,6.08-.03.86-.65,1.52-1.49,1.57-.81.05-1.53-.56-1.64-1.41-.06-.46,0-.92.06-1.37.55-4.06,3.58-7.23,7.63-7.98.84-.16.85-.17,1.03-1.03.03-.16.07-.32.08-.48.13-1.94-1.01-3.61-2.82-4.15-1.81-.54-3.68.27-4.61,1.98-.5.91-1.4,1.23-2.23.78-.8-.44-1.03-1.37-.56-2.26.7-1.32,1.72-2.31,3.03-3.01.12-.06.28-.08.35-.26-1.85-.95-3.74-1.77-5.87-1.79-1.64-.02-2.89,1.22-2.89,2.87,0,3.97,0,7.95,0,11.92,0,.12-.06.26.08.38.43-.19.86-.37,1.32-.48.48-.12.96-.17,1.45-.16.88.02,1.54.67,1.57,1.54.03.83-.64,1.54-1.51,1.6-1.86.12-2.91,1.25-2.91,3.1,0,7.55,0,15.09,0,22.64v.58Z"/>
      <path class="cls-3" d="m82.21,91.36c-1.12.04-1.83-.53-1.87-1.48-.04-.92.59-1.6,1.53-1.65,1.53-.07,2.71-.73,3.49-2.07.27-.47.27-.47-.25-.61-4.12-1.07-7.09-4.92-6.98-9.04.02-.8.59-1.45,1.37-1.55.75-.1,1.52.38,1.7,1.11.09.35.07.73.12,1.1.32,2.47,1.64,4.23,3.96,5.11,2.34.88,4.5.42,6.37-1.27.47-.43.96-.75,1.62-.61.61.13,1.03.5,1.21,1.11.18.61.02,1.14-.42,1.58-1.34,1.34-2.93,2.22-4.8,2.57-.29.06-.41.17-.49.45-.81,3-3.5,5.15-6.55,5.24Z"/>
      <path class="cls-3" d="m83.56,100.38c.38.12.48-.1.52-.5.37-4.26,3.91-7.84,8.15-8.27.34-.03.68-.07,1.01-.07.92,0,1.62.63,1.65,1.49.03.93-.61,1.64-1.57,1.66-1.04.02-2.02.23-2.92.75-2.04,1.17-3.12,2.94-3.23,5.3-.02.32.09.48.38.64,3.23,1.74,4.95,4.43,5.14,8.1.06,1.15-.77,1.77-1.54,1.79-.77.02-1.58-.61-1.62-1.68-.11-2.92-1.96-5.2-4.69-5.89-.48-.12-.96-.14-1.45-.18-.96-.07-1.62-.74-1.6-1.6.02-.9.73-1.54,1.77-1.54Z"/>
      <path class="cls-3" d="m118.84,77.14c-.18,4.1-3.08,7.65-7.06,8.61-.39.09-.39.21-.23.51.79,1.39,1.98,2.1,3.57,2.16.81.03,1.44.62,1.5,1.4.07.81-.42,1.55-1.18,1.69-.62.12-1.24.05-1.85-.1-2.79-.68-4.6-2.4-5.4-5.16-.08-.27-.21-.34-.45-.39-1.88-.35-3.49-1.23-4.84-2.59-.45-.46-.6-1.01-.4-1.63.2-.6.63-.95,1.25-1.06.57-.1,1.04.11,1.44.51,1.37,1.34,3.02,1.9,4.92,1.76,2.78-.2,5.24-2.58,5.52-5.36.03-.26.05-.53.06-.79.04-.89.7-1.55,1.55-1.55.89,0,1.56.65,1.59,1.56,0,.15,0,.3,0,.44Z"/>
      <path class="cls-3" d="m107.63,92.83c4.7.15,8.64,3.9,8.97,8.46.02.31.11.39.42.37.96-.06,1.67.46,1.81,1.27.17,1.03-.53,1.86-1.6,1.88-2.79.06-5.13,1.85-5.88,4.53-.15.51-.22,1.04-.23,1.57-.02.97-.68,1.64-1.6,1.63-.91-.01-1.58-.72-1.56-1.68.08-2.81,1.17-5.14,3.3-6.99.57-.5,1.2-.92,1.88-1.23.29-.13.37-.31.36-.61-.05-3.3-2.7-5.94-6.11-6.07-.93-.04-1.54-.58-1.62-1.43-.08-.9.57-1.66,1.47-1.71.16,0,.32,0,.4,0Z"/>
    </g>
  </g>
</svg>